<svg xmlns="http://www.w3.org/2000/svg" width="41" height="18" viewBox="0 0 41 18">
  <path fill="#272727" d="M12.202627,7.53002814 C11.8366676,7.54093434 11.4893287,7.6939075 11.2341958,7.95653939 L4.31486493,14.8770275 C3.96618554,15.1427958 3.76108274,15.5557665 3.76,15.9942293 C3.75892581,16.4326921 3.96199463,16.8466672 4.30936241,17.1141481 C4.31210718,17.1159921 4.31485843,17.1178265 4.31761612,17.1196511 L11.2341958,24.0373874 C11.5875038,24.4054357 12.1121455,24.5536941 12.6057852,24.4249844 C13.0994249,24.2962746 13.484926,23.9107091 13.6136144,23.4169869 C13.7423027,22.9232647 13.5940693,22.3985351 13.2260826,22.045168 L8.58751732,17.4058264 L41.8113104,17.4058264 C42.319312,17.413012 42.7918296,17.1460669 43.047927,16.7072095 C43.3040243,16.2683522 43.3040243,15.7255749 43.047927,15.2867175 C42.7918296,14.8478602 42.319312,14.5809151 41.8113104,14.5881007 L8.58751732,14.5881007 L13.2260826,9.94875906 C13.6426986,9.54372308 13.7679654,8.92442283 13.5415225,8.38927088 C13.3150797,7.85411894 12.7833807,7.5128985 12.202627,7.53002814 Z" transform="translate(-3 -7)"/>
</svg>
