<svg xmlns="http://www.w3.org/2000/svg" width="401" height="24" viewBox="0 0 401 24">
  <path fill="#FFF" d="M5.14,23 L5.14,14.5 C5.14,13.2306667 5.06633333,11.9046667 4.919,10.522 C4.77166667,9.13933333 4.64133333,7.84733333 4.528,6.646 L4.528,6.646 L4.664,6.646 L6.908,11.474 L13.062,23 L17.822,23 L17.822,0.798 L13.402,0.798 L13.402,9.23 C13.402,10.522 13.47,11.8706667 13.606,13.276 C13.742,14.6813333 13.8666667,15.9733333 13.98,17.152 L13.98,17.152 L13.844,17.152 L11.634,12.324 L5.48,0.798 L0.686,0.798 L0.686,23 L5.14,23 Z M32.102,23.408 C34.074,23.408 35.808,22.9433333 37.304,22.014 C38.8,21.0846667 39.9673333,19.753 40.806,18.019 C41.6446667,16.285 42.064,14.2166667 42.064,11.814 C42.064,9.41133333 41.6446667,7.36 40.806,5.66 C39.9673333,3.96 38.8,2.65666667 37.304,1.75 C35.808,0.843333333 34.074,0.39 32.102,0.39 C30.13,0.39 28.3903333,0.843333333 26.883,1.75 C25.3756667,2.65666667 24.2026667,3.96 23.364,5.66 C22.5253333,7.36 22.106,9.41133333 22.106,11.814 C22.106,14.2166667 22.5253333,16.285 23.364,18.019 C24.2026667,19.753 25.3756667,21.0846667 26.883,22.014 C28.3903333,22.9433333 30.13,23.408 32.102,23.408 Z M32.102,19.362 C31.0366667,19.362 30.113,19.056 29.331,18.444 C28.549,17.832 27.9483333,16.9593333 27.529,15.826 C27.1096667,14.6926667 26.9,13.3553333 26.9,11.814 C26.9,10.2726667 27.1096667,8.95233333 27.529,7.853 C27.9483333,6.75366667 28.549,5.90933333 29.331,5.32 C30.113,4.73066667 31.0366667,4.436 32.102,4.436 C33.1446667,4.436 34.057,4.73066667 34.839,5.32 C35.621,5.90933333 36.2273333,6.75366667 36.658,7.853 C37.0886667,8.95233333 37.304,10.2726667 37.304,11.814 C37.304,13.3553333 37.0886667,14.6926667 36.658,15.826 C36.2273333,16.9593333 35.621,17.832 34.839,18.444 C34.057,19.056 33.1446667,19.362 32.102,19.362 Z M51.006,23 L51.006,14.772 L53.974,14.772 L58.384,23 L63.62,23 L58.497,13.991 L58.7063964,13.9038935 C59.7472525,13.4450611 60.6055345,12.7833688 61.2812426,11.9188166 L61.461,11.678 C62.2203333,10.6126667 62.6,9.25266667 62.6,7.598 C62.6,5.87533333 62.2203333,4.521 61.461,3.535 C60.7016667,2.549 59.6873333,1.84633333 58.418,1.427 C57.1486667,1.00766667 55.732,0.798 54.168,0.798 L54.168,0.798 L46.348,0.798 L46.348,23 L51.006,23 Z M53.76,11.066 L51.006,11.066 L51.006,4.504 L53.76,4.504 C55.1426667,4.504 56.2023333,4.73066667 56.939,5.184 C57.6756667,5.63733333 58.044,6.442 58.044,7.598 C58.044,8.754 57.6756667,9.621 56.939,10.199 C56.2023333,10.777 55.1426667,11.066 53.76,11.066 L53.76,11.066 Z M73.65,23.408 C75.3726667,23.408 76.8516667,23.0963333 78.087,22.473 C79.3223333,21.8496667 80.263,21.0223333 80.909,19.991 C81.555,18.9596667 81.878,17.832 81.878,16.608 C81.878,15.5653333 81.691,14.6643333 81.317,13.905 C80.943,13.1456667 80.4273333,12.494 79.77,11.95 C79.1126667,11.406 78.3306667,10.9526667 77.424,10.59 L77.424,10.59 L74.568,9.434 C73.9333333,9.162 73.3496667,8.907 72.817,8.669 C72.2843333,8.431 71.8706667,8.15333333 71.576,7.836 C71.2813333,7.51866667 71.134,7.11066667 71.134,6.612 C71.134,5.932 71.4116667,5.39933333 71.967,5.014 C72.5223333,4.62866667 73.2533333,4.436 74.16,4.436 C75.0666667,4.436 75.894,4.589 76.642,4.895 C77.39,5.201 78.1266667,5.64866667 78.852,6.238 L78.852,6.238 L81.198,3.28 C80.2686667,2.35066667 79.1863333,1.63666667 77.951,1.138 C76.7156667,0.639333333 75.452,0.39 74.16,0.39 C72.664,0.39 71.3323333,0.684666667 70.165,1.274 C68.9976667,1.86333333 68.0796667,2.64533333 67.411,3.62 C66.7423333,4.59466667 66.408,5.68266667 66.408,6.884 C66.408,7.972 66.6233333,8.907 67.054,9.689 C67.4846667,10.471 68.0456667,11.1226667 68.737,11.644 C69.4283333,12.1653333 70.148,12.5846667 70.896,12.902 L70.896,12.902 L73.82,14.16 C74.4773333,14.432 75.0496667,14.687 75.537,14.925 C76.0243333,15.163 76.4096667,15.435 76.693,15.741 C76.9763333,16.047 77.118,16.4606667 77.118,16.982 C77.118,17.73 76.8346667,18.3136667 76.268,18.733 C75.7013333,19.1523333 74.8626667,19.362 73.752,19.362 C72.8,19.362 71.831,19.1466667 70.845,18.716 C69.859,18.2853333 68.9693333,17.7073333 68.176,16.982 L68.176,16.982 L65.49,20.178 C66.6006667,21.2206667 67.8756667,22.0196667 69.315,22.575 C70.7543333,23.1303333 72.1993333,23.408 73.65,23.408 Z M90.378,23 L90.378,16.88 L93.166,13.276 L98.776,23 L103.876,23 L95.92,9.604 L102.686,0.798 L97.552,0.798 L90.514,10.216 L90.378,10.216 L90.378,0.798 L85.72,0.798 L85.72,23 L90.378,23 Z M117.884,23 L117.884,15.248 L120.774,15.248 C122.360667,15.248 123.805667,14.9873333 125.109,14.466 C126.412333,13.9446667 127.449333,13.1343333 128.22,12.035 C128.990667,10.9356667 129.376,9.536 129.376,7.836 C129.376,6.068 128.985,4.674 128.203,3.654 C127.421,2.634 126.372667,1.903 125.058,1.461 C123.743333,1.019 122.27,0.798 120.638,0.798 L120.638,0.798 L113.226,0.798 L113.226,23 L117.884,23 Z M120.468,11.542 L117.884,11.542 L117.884,4.504 L120.332,4.504 C121.805333,4.504 122.921667,4.75333333 123.681,5.252 C124.440333,5.75066667 124.82,6.612 124.82,7.836 C124.82,9.06 124.463,9.98366667 123.749,10.607 C123.035,11.2303333 121.941333,11.542 120.468,11.542 L120.468,11.542 Z M142.262,23.408 C144.234,23.408 145.968,22.9433333 147.464,22.014 C148.96,21.0846667 150.127333,19.753 150.966,18.019 C151.804667,16.285 152.224,14.2166667 152.224,11.814 C152.224,9.41133333 151.804667,7.36 150.966,5.66 C150.127333,3.96 148.96,2.65666667 147.464,1.75 C145.968,0.843333333 144.234,0.39 142.262,0.39 C140.29,0.39 138.550333,0.843333333 137.043,1.75 C135.535667,2.65666667 134.362667,3.96 133.524,5.66 C132.685333,7.36 132.266,9.41133333 132.266,11.814 C132.266,14.2166667 132.685333,16.285 133.524,18.019 C134.362667,19.753 135.535667,21.0846667 137.043,22.014 C138.550333,22.9433333 140.29,23.408 142.262,23.408 Z M142.262,19.362 C141.196667,19.362 140.273,19.056 139.491,18.444 C138.709,17.832 138.108333,16.9593333 137.689,15.826 C137.269667,14.6926667 137.06,13.3553333 137.06,11.814 C137.06,10.2726667 137.269667,8.95233333 137.689,7.853 C138.108333,6.75366667 138.709,5.90933333 139.491,5.32 C140.273,4.73066667 141.196667,4.436 142.262,4.436 C143.304667,4.436 144.217,4.73066667 144.999,5.32 C145.781,5.90933333 146.387333,6.75366667 146.818,7.853 C147.248667,8.95233333 147.464,10.2726667 147.464,11.814 C147.464,13.3553333 147.248667,14.6926667 146.818,15.826 C146.387333,16.9593333 145.781,17.832 144.999,18.444 C144.217,19.056 143.304667,19.362 142.262,19.362 Z M170.074,23 L170.074,19.09 L161.166,19.09 L161.166,0.798 L156.508,0.798 L156.508,23 L170.074,23 Z M175.854,23 L177.355,17.458 L184.332,17.458 L185.816,23 L190.746,23 L183.708,0.798 L178.166,0.798 L171.094,23 L175.854,23 Z M183.366,13.854 L178.331,13.854 L178.948,11.576 C179.201867,10.6693333 179.452107,9.7264 179.69872,8.7472 L179.883,8.006 C180.189,6.75933333 180.478,5.54666667 180.75,4.368 L180.75,4.368 L180.886,4.368 C181.203333,5.54666667 181.515,6.75933333 181.821,8.006 C182.127,9.25266667 182.438667,10.4426667 182.756,11.576 L182.756,11.576 L183.366,13.854 Z M197.92,23 L197.92,14.772 L200.888,14.772 L205.298,23 L210.534,23 L205.411,13.991 L205.620396,13.9038935 C206.661252,13.4450611 207.519535,12.7833688 208.195243,11.9188166 L208.375,11.678 C209.134333,10.6126667 209.514,9.25266667 209.514,7.598 C209.514,5.87533333 209.134333,4.521 208.375,3.535 C207.615667,2.549 206.601333,1.84633333 205.332,1.427 C204.062667,1.00766667 202.646,0.798 201.082,0.798 L201.082,0.798 L193.262,0.798 L193.262,23 L197.92,23 Z M200.674,11.066 L197.92,11.066 L197.92,4.504 L200.674,4.504 C202.056667,4.504 203.116333,4.73066667 203.853,5.184 C204.589667,5.63733333 204.958,6.442 204.958,7.598 C204.958,8.754 204.589667,9.621 203.853,10.199 C203.116333,10.777 202.056667,11.066 200.674,11.066 L200.674,11.066 Z M218.524,23 L218.524,13.548 L226.616,13.548 L226.616,23 L231.274,23 L231.274,0.798 L226.616,0.798 L226.616,9.468 L218.524,9.468 L218.524,0.798 L213.866,0.798 L213.866,23 L218.524,23 Z M245.248,23.408 C246.630667,23.408 247.860333,23.204 248.937,22.796 C250.013667,22.388 250.920333,21.7646667 251.657,20.926 C252.393667,20.0873333 252.949,18.9993333 253.323,17.662 C253.697,16.3246667 253.884,14.738 253.884,12.902 L253.884,12.902 L253.884,0.798 L249.396,0.798 L249.396,13.344 C249.396,14.84 249.226,16.03 248.886,16.914 C248.546,17.798 248.07,18.427 247.458,18.801 C246.846,19.175 246.109333,19.362 245.248,19.362 C244.409333,19.362 243.684,19.175 243.072,18.801 C242.46,18.427 241.995333,17.798 241.678,16.914 C241.360667,16.03 241.202,14.84 241.202,13.344 L241.202,13.344 L241.202,0.798 L236.544,0.798 L236.544,12.902 C236.544,14.738 236.736667,16.3246667 237.122,17.662 C237.507333,18.9993333 238.068333,20.0873333 238.805,20.926 C239.541667,21.7646667 240.454,22.388 241.542,22.796 C242.63,23.204 243.865333,23.408 245.248,23.408 Z M263.608,23 L263.608,14.5 C263.608,13.2306667 263.534333,11.9046667 263.387,10.522 C263.239667,9.13933333 263.109333,7.84733333 262.996,6.646 L262.996,6.646 L263.132,6.646 L265.376,11.474 L271.53,23 L276.29,23 L276.29,0.798 L271.87,0.798 L271.87,9.23 C271.87,10.522 271.938,11.8706667 272.074,13.276 C272.21,14.6813333 272.334667,15.9733333 272.448,17.152 L272.448,17.152 L272.312,17.152 L270.102,12.324 L263.948,0.798 L259.154,0.798 L259.154,23 L263.608,23 Z M288.088,23 C290.264,23 292.156667,22.592 293.766,21.776 C295.375333,20.96 296.627667,19.7246667 297.523,18.07 C298.418333,16.4153333 298.866,14.33 298.866,11.814 C298.866,9.298 298.418333,7.22966667 297.523,5.609 C296.627667,3.98833333 295.352667,2.78133333 293.698,1.988 C292.043333,1.19466667 290.082667,0.798 287.816,0.798 L287.816,0.798 L281.662,0.798 L281.662,23 L288.088,23 Z M287.544,19.226 L286.32,19.226 L286.32,4.572 L287.544,4.572 C288.858667,4.572 290.009,4.80433333 290.995,5.269 C291.981,5.73366667 292.740333,6.493 293.273,7.547 C293.805667,8.601 294.072,10.0233333 294.072,11.814 C294.072,13.6046667 293.805667,15.0383333 293.273,16.115 C292.740333,17.1916667 291.981,17.9793333 290.995,18.478 C290.009,18.9766667 288.858667,19.226 287.544,19.226 L287.544,19.226 Z M307.808,23 L307.808,16.88 L310.596,13.276 L316.206,23 L321.306,23 L313.35,9.604 L320.116,0.798 L314.982,0.798 L307.944,10.216 L307.808,10.216 L307.808,0.798 L303.15,0.798 L303.15,23 L307.808,23 Z M337.422,23 L337.422,19.09 L328.514,19.09 L328.514,0.798 L323.856,0.798 L323.856,23 L337.422,23 Z M349.9,23.408 C351.282667,23.408 352.512333,23.204 353.589,22.796 C354.665667,22.388 355.572333,21.7646667 356.309,20.926 C357.045667,20.0873333 357.601,18.9993333 357.975,17.662 C358.349,16.3246667 358.536,14.738 358.536,12.902 L358.536,12.902 L358.536,0.798 L354.048,0.798 L354.048,13.344 C354.048,14.84 353.878,16.03 353.538,16.914 C353.198,17.798 352.722,18.427 352.11,18.801 C351.498,19.175 350.761333,19.362 349.9,19.362 C349.061333,19.362 348.336,19.175 347.724,18.801 C347.112,18.427 346.647333,17.798 346.33,16.914 C346.012667,16.03 345.854,14.84 345.854,13.344 L345.854,13.344 L345.854,0.798 L341.196,0.798 L341.196,12.902 C341.196,14.738 341.388667,16.3246667 341.774,17.662 C342.159333,18.9993333 342.720333,20.0873333 343.457,20.926 C344.193667,21.7646667 345.106,22.388 346.194,22.796 C347.282,23.204 348.517333,23.408 349.9,23.408 Z M371.864,23 C373.473333,23 374.924,22.7676667 376.216,22.303 C377.508,21.8383333 378.539333,21.1243333 379.31,20.161 C380.080667,19.1976667 380.466,17.968 380.466,16.472 C380.466,14.976 380.075,13.7973333 379.293,12.936 C378.511,12.0746667 377.530667,11.508 376.352,11.236 L376.352,11.236 L376.352,11.1 C377.281333,10.76 378.012333,10.1253333 378.545,9.196 C379.077667,8.26666667 379.344,7.30333333 379.344,6.306 C379.344,4.90066667 378.987,3.80133333 378.273,3.008 C377.559,2.21466667 376.59,1.648 375.366,1.308 C374.142,0.968 372.770667,0.798 371.252,0.798 L371.252,0.798 L363.806,0.798 L363.806,23 L371.864,23 Z M370.98,9.774 L368.464,9.774 L368.464,4.402 L371.014,4.402 C372.283333,4.402 373.229667,4.60033333 373.853,4.997 C374.476333,5.39366667 374.788,6.05666667 374.788,6.986 C374.788,7.84733333 374.482,8.52733333 373.87,9.026 C373.258,9.52466667 372.294667,9.774 370.98,9.774 L370.98,9.774 Z M371.456,19.396 L368.464,19.396 L368.464,13.242 L371.456,13.242 C372.929333,13.242 374.04,13.4743333 374.788,13.939 C375.536,14.4036667 375.91,15.146 375.91,16.166 C375.91,17.254 375.530333,18.0643333 374.771,18.597 C374.011667,19.1296667 372.906667,19.396 371.456,19.396 L371.456,19.396 Z M392.366,23 C393.975333,23 395.426,22.7676667 396.718,22.303 C398.01,21.8383333 399.041333,21.1243333 399.812,20.161 C400.582667,19.1976667 400.968,17.968 400.968,16.472 C400.968,14.976 400.577,13.7973333 399.795,12.936 C399.013,12.0746667 398.032667,11.508 396.854,11.236 L396.854,11.236 L396.854,11.1 C397.783333,10.76 398.514333,10.1253333 399.047,9.196 C399.579667,8.26666667 399.846,7.30333333 399.846,6.306 C399.846,4.90066667 399.489,3.80133333 398.775,3.008 C398.061,2.21466667 397.092,1.648 395.868,1.308 C394.644,0.968 393.272667,0.798 391.754,0.798 L391.754,0.798 L384.308,0.798 L384.308,23 L392.366,23 Z M391.482,9.774 L388.966,9.774 L388.966,4.402 L391.516,4.402 C392.785333,4.402 393.731667,4.60033333 394.355,4.997 C394.978333,5.39366667 395.29,6.05666667 395.29,6.986 C395.29,7.84733333 394.984,8.52733333 394.372,9.026 C393.76,9.52466667 392.796667,9.774 391.482,9.774 L391.482,9.774 Z M391.958,19.396 L388.966,19.396 L388.966,13.242 L391.958,13.242 C393.431333,13.242 394.542,13.4743333 395.29,13.939 C396.038,14.4036667 396.412,15.146 396.412,16.166 C396.412,17.254 396.032333,18.0643333 395.273,18.597 C394.513667,19.1296667 393.408667,19.396 391.958,19.396 L391.958,19.396 Z"/>
</svg>
