<svg xmlns="http://www.w3.org/2000/svg" width="401" height="24" viewBox="0 0 401 24">
  <path d="M97.14,195 L97.14,186.5 C97.14,185.230667 97.0663333,183.904667 96.919,182.522 C96.7716667,181.139333 96.6413333,179.847333 96.528,178.646 L96.528,178.646 L96.664,178.646 L98.908,183.474 L105.062,195 L109.822,195 L109.822,172.798 L105.402,172.798 L105.402,181.23 C105.402,182.522 105.47,183.870667 105.606,185.276 C105.742,186.681333 105.866667,187.973333 105.98,189.152 L105.98,189.152 L105.844,189.152 L103.634,184.324 L97.48,172.798 L92.686,172.798 L92.686,195 L97.14,195 Z M124.102,195.408 C126.074,195.408 127.808,194.943333 129.304,194.014 C130.8,193.084667 131.967333,191.753 132.806,190.019 C133.644667,188.285 134.064,186.216667 134.064,183.814 C134.064,181.411333 133.644667,179.36 132.806,177.66 C131.967333,175.96 130.8,174.656667 129.304,173.75 C127.808,172.843333 126.074,172.39 124.102,172.39 C122.13,172.39 120.390333,172.843333 118.883,173.75 C117.375667,174.656667 116.202667,175.96 115.364,177.66 C114.525333,179.36 114.106,181.411333 114.106,183.814 C114.106,186.216667 114.525333,188.285 115.364,190.019 C116.202667,191.753 117.375667,193.084667 118.883,194.014 C120.390333,194.943333 122.13,195.408 124.102,195.408 Z M124.102,191.362 C123.036667,191.362 122.113,191.056 121.331,190.444 C120.549,189.832 119.948333,188.959333 119.529,187.826 C119.109667,186.692667 118.9,185.355333 118.9,183.814 C118.9,182.272667 119.109667,180.952333 119.529,179.853 C119.948333,178.753667 120.549,177.909333 121.331,177.32 C122.113,176.730667 123.036667,176.436 124.102,176.436 C125.144667,176.436 126.057,176.730667 126.839,177.32 C127.621,177.909333 128.227333,178.753667 128.658,179.853 C129.088667,180.952333 129.304,182.272667 129.304,183.814 C129.304,185.355333 129.088667,186.692667 128.658,187.826 C128.227333,188.959333 127.621,189.832 126.839,190.444 C126.057,191.056 125.144667,191.362 124.102,191.362 Z M143.006,195 L143.006,186.772 L145.974,186.772 L150.384,195 L155.62,195 L150.497,185.991 L150.706396,185.903893 C151.747252,185.445061 152.605535,184.783369 153.281243,183.918817 L153.461,183.678 C154.220333,182.612667 154.6,181.252667 154.6,179.598 C154.6,177.875333 154.220333,176.521 153.461,175.535 C152.701667,174.549 151.687333,173.846333 150.418,173.427 C149.148667,173.007667 147.732,172.798 146.168,172.798 L146.168,172.798 L138.348,172.798 L138.348,195 L143.006,195 Z M145.76,183.066 L143.006,183.066 L143.006,176.504 L145.76,176.504 C147.142667,176.504 148.202333,176.730667 148.939,177.184 C149.675667,177.637333 150.044,178.442 150.044,179.598 C150.044,180.754 149.675667,181.621 148.939,182.199 C148.202333,182.777 147.142667,183.066 145.76,183.066 L145.76,183.066 Z M165.65,195.408 C167.372667,195.408 168.851667,195.096333 170.087,194.473 C171.322333,193.849667 172.263,193.022333 172.909,191.991 C173.555,190.959667 173.878,189.832 173.878,188.608 C173.878,187.565333 173.691,186.664333 173.317,185.905 C172.943,185.145667 172.427333,184.494 171.77,183.95 C171.112667,183.406 170.330667,182.952667 169.424,182.59 L169.424,182.59 L166.568,181.434 C165.933333,181.162 165.349667,180.907 164.817,180.669 C164.284333,180.431 163.870667,180.153333 163.576,179.836 C163.281333,179.518667 163.134,179.110667 163.134,178.612 C163.134,177.932 163.411667,177.399333 163.967,177.014 C164.522333,176.628667 165.253333,176.436 166.16,176.436 C167.066667,176.436 167.894,176.589 168.642,176.895 C169.39,177.201 170.126667,177.648667 170.852,178.238 L170.852,178.238 L173.198,175.28 C172.268667,174.350667 171.186333,173.636667 169.951,173.138 C168.715667,172.639333 167.452,172.39 166.16,172.39 C164.664,172.39 163.332333,172.684667 162.165,173.274 C160.997667,173.863333 160.079667,174.645333 159.411,175.62 C158.742333,176.594667 158.408,177.682667 158.408,178.884 C158.408,179.972 158.623333,180.907 159.054,181.689 C159.484667,182.471 160.045667,183.122667 160.737,183.644 C161.428333,184.165333 162.148,184.584667 162.896,184.902 L162.896,184.902 L165.82,186.16 C166.477333,186.432 167.049667,186.687 167.537,186.925 C168.024333,187.163 168.409667,187.435 168.693,187.741 C168.976333,188.047 169.118,188.460667 169.118,188.982 C169.118,189.73 168.834667,190.313667 168.268,190.733 C167.701333,191.152333 166.862667,191.362 165.752,191.362 C164.8,191.362 163.831,191.146667 162.845,190.716 C161.859,190.285333 160.969333,189.707333 160.176,188.982 L160.176,188.982 L157.49,192.178 C158.600667,193.220667 159.875667,194.019667 161.315,194.575 C162.754333,195.130333 164.199333,195.408 165.65,195.408 Z M182.378,195 L182.378,188.88 L185.166,185.276 L190.776,195 L195.876,195 L187.92,181.604 L194.686,172.798 L189.552,172.798 L182.514,182.216 L182.378,182.216 L182.378,172.798 L177.72,172.798 L177.72,195 L182.378,195 Z M209.884,195 L209.884,187.248 L212.774,187.248 C214.360667,187.248 215.805667,186.987333 217.109,186.466 C218.412333,185.944667 219.449333,185.134333 220.22,184.035 C220.990667,182.935667 221.376,181.536 221.376,179.836 C221.376,178.068 220.985,176.674 220.203,175.654 C219.421,174.634 218.372667,173.903 217.058,173.461 C215.743333,173.019 214.27,172.798 212.638,172.798 L212.638,172.798 L205.226,172.798 L205.226,195 L209.884,195 Z M212.468,183.542 L209.884,183.542 L209.884,176.504 L212.332,176.504 C213.805333,176.504 214.921667,176.753333 215.681,177.252 C216.440333,177.750667 216.82,178.612 216.82,179.836 C216.82,181.06 216.463,181.983667 215.749,182.607 C215.035,183.230333 213.941333,183.542 212.468,183.542 L212.468,183.542 Z M234.262,195.408 C236.234,195.408 237.968,194.943333 239.464,194.014 C240.96,193.084667 242.127333,191.753 242.966,190.019 C243.804667,188.285 244.224,186.216667 244.224,183.814 C244.224,181.411333 243.804667,179.36 242.966,177.66 C242.127333,175.96 240.96,174.656667 239.464,173.75 C237.968,172.843333 236.234,172.39 234.262,172.39 C232.29,172.39 230.550333,172.843333 229.043,173.75 C227.535667,174.656667 226.362667,175.96 225.524,177.66 C224.685333,179.36 224.266,181.411333 224.266,183.814 C224.266,186.216667 224.685333,188.285 225.524,190.019 C226.362667,191.753 227.535667,193.084667 229.043,194.014 C230.550333,194.943333 232.29,195.408 234.262,195.408 Z M234.262,191.362 C233.196667,191.362 232.273,191.056 231.491,190.444 C230.709,189.832 230.108333,188.959333 229.689,187.826 C229.269667,186.692667 229.06,185.355333 229.06,183.814 C229.06,182.272667 229.269667,180.952333 229.689,179.853 C230.108333,178.753667 230.709,177.909333 231.491,177.32 C232.273,176.730667 233.196667,176.436 234.262,176.436 C235.304667,176.436 236.217,176.730667 236.999,177.32 C237.781,177.909333 238.387333,178.753667 238.818,179.853 C239.248667,180.952333 239.464,182.272667 239.464,183.814 C239.464,185.355333 239.248667,186.692667 238.818,187.826 C238.387333,188.959333 237.781,189.832 236.999,190.444 C236.217,191.056 235.304667,191.362 234.262,191.362 Z M262.074,195 L262.074,191.09 L253.166,191.09 L253.166,172.798 L248.508,172.798 L248.508,195 L262.074,195 Z M267.854,195 L269.355,189.458 L276.332,189.458 L277.816,195 L282.746,195 L275.708,172.798 L270.166,172.798 L263.094,195 L267.854,195 Z M275.366,185.854 L270.331,185.854 L270.948,183.576 C271.201867,182.669333 271.452107,181.7264 271.69872,180.7472 L271.883,180.006 C272.189,178.759333 272.478,177.546667 272.75,176.368 L272.75,176.368 L272.886,176.368 C273.203333,177.546667 273.515,178.759333 273.821,180.006 C274.127,181.252667 274.438667,182.442667 274.756,183.576 L274.756,183.576 L275.366,185.854 Z M289.92,195 L289.92,186.772 L292.888,186.772 L297.298,195 L302.534,195 L297.411,185.991 L297.620396,185.903893 C298.661252,185.445061 299.519535,184.783369 300.195243,183.918817 L300.375,183.678 C301.134333,182.612667 301.514,181.252667 301.514,179.598 C301.514,177.875333 301.134333,176.521 300.375,175.535 C299.615667,174.549 298.601333,173.846333 297.332,173.427 C296.062667,173.007667 294.646,172.798 293.082,172.798 L293.082,172.798 L285.262,172.798 L285.262,195 L289.92,195 Z M292.674,183.066 L289.92,183.066 L289.92,176.504 L292.674,176.504 C294.056667,176.504 295.116333,176.730667 295.853,177.184 C296.589667,177.637333 296.958,178.442 296.958,179.598 C296.958,180.754 296.589667,181.621 295.853,182.199 C295.116333,182.777 294.056667,183.066 292.674,183.066 L292.674,183.066 Z M310.524,195 L310.524,185.548 L318.616,185.548 L318.616,195 L323.274,195 L323.274,172.798 L318.616,172.798 L318.616,181.468 L310.524,181.468 L310.524,172.798 L305.866,172.798 L305.866,195 L310.524,195 Z M337.248,195.408 C338.630667,195.408 339.860333,195.204 340.937,194.796 C342.013667,194.388 342.920333,193.764667 343.657,192.926 C344.393667,192.087333 344.949,190.999333 345.323,189.662 C345.697,188.324667 345.884,186.738 345.884,184.902 L345.884,184.902 L345.884,172.798 L341.396,172.798 L341.396,185.344 C341.396,186.84 341.226,188.03 340.886,188.914 C340.546,189.798 340.07,190.427 339.458,190.801 C338.846,191.175 338.109333,191.362 337.248,191.362 C336.409333,191.362 335.684,191.175 335.072,190.801 C334.46,190.427 333.995333,189.798 333.678,188.914 C333.360667,188.03 333.202,186.84 333.202,185.344 L333.202,185.344 L333.202,172.798 L328.544,172.798 L328.544,184.902 C328.544,186.738 328.736667,188.324667 329.122,189.662 C329.507333,190.999333 330.068333,192.087333 330.805,192.926 C331.541667,193.764667 332.454,194.388 333.542,194.796 C334.63,195.204 335.865333,195.408 337.248,195.408 Z M355.608,195 L355.608,186.5 C355.608,185.230667 355.534333,183.904667 355.387,182.522 C355.239667,181.139333 355.109333,179.847333 354.996,178.646 L354.996,178.646 L355.132,178.646 L357.376,183.474 L363.53,195 L368.29,195 L368.29,172.798 L363.87,172.798 L363.87,181.23 C363.87,182.522 363.938,183.870667 364.074,185.276 C364.21,186.681333 364.334667,187.973333 364.448,189.152 L364.448,189.152 L364.312,189.152 L362.102,184.324 L355.948,172.798 L351.154,172.798 L351.154,195 L355.608,195 Z M380.088,195 C382.264,195 384.156667,194.592 385.766,193.776 C387.375333,192.96 388.627667,191.724667 389.523,190.07 C390.418333,188.415333 390.866,186.33 390.866,183.814 C390.866,181.298 390.418333,179.229667 389.523,177.609 C388.627667,175.988333 387.352667,174.781333 385.698,173.988 C384.043333,173.194667 382.082667,172.798 379.816,172.798 L379.816,172.798 L373.662,172.798 L373.662,195 L380.088,195 Z M379.544,191.226 L378.32,191.226 L378.32,176.572 L379.544,176.572 C380.858667,176.572 382.009,176.804333 382.995,177.269 C383.981,177.733667 384.740333,178.493 385.273,179.547 C385.805667,180.601 386.072,182.023333 386.072,183.814 C386.072,185.604667 385.805667,187.038333 385.273,188.115 C384.740333,189.191667 383.981,189.979333 382.995,190.478 C382.009,190.976667 380.858667,191.226 379.544,191.226 L379.544,191.226 Z M399.808,195 L399.808,188.88 L402.596,185.276 L408.206,195 L413.306,195 L405.35,181.604 L412.116,172.798 L406.982,172.798 L399.944,182.216 L399.808,182.216 L399.808,172.798 L395.15,172.798 L395.15,195 L399.808,195 Z M429.422,195 L429.422,191.09 L420.514,191.09 L420.514,172.798 L415.856,172.798 L415.856,195 L429.422,195 Z M441.9,195.408 C443.282667,195.408 444.512333,195.204 445.589,194.796 C446.665667,194.388 447.572333,193.764667 448.309,192.926 C449.045667,192.087333 449.601,190.999333 449.975,189.662 C450.349,188.324667 450.536,186.738 450.536,184.902 L450.536,184.902 L450.536,172.798 L446.048,172.798 L446.048,185.344 C446.048,186.84 445.878,188.03 445.538,188.914 C445.198,189.798 444.722,190.427 444.11,190.801 C443.498,191.175 442.761333,191.362 441.9,191.362 C441.061333,191.362 440.336,191.175 439.724,190.801 C439.112,190.427 438.647333,189.798 438.33,188.914 C438.012667,188.03 437.854,186.84 437.854,185.344 L437.854,185.344 L437.854,172.798 L433.196,172.798 L433.196,184.902 C433.196,186.738 433.388667,188.324667 433.774,189.662 C434.159333,190.999333 434.720333,192.087333 435.457,192.926 C436.193667,193.764667 437.106,194.388 438.194,194.796 C439.282,195.204 440.517333,195.408 441.9,195.408 Z M463.864,195 C465.473333,195 466.924,194.767667 468.216,194.303 C469.508,193.838333 470.539333,193.124333 471.31,192.161 C472.080667,191.197667 472.466,189.968 472.466,188.472 C472.466,186.976 472.075,185.797333 471.293,184.936 C470.511,184.074667 469.530667,183.508 468.352,183.236 L468.352,183.236 L468.352,183.1 C469.281333,182.76 470.012333,182.125333 470.545,181.196 C471.077667,180.266667 471.344,179.303333 471.344,178.306 C471.344,176.900667 470.987,175.801333 470.273,175.008 C469.559,174.214667 468.59,173.648 467.366,173.308 C466.142,172.968 464.770667,172.798 463.252,172.798 L463.252,172.798 L455.806,172.798 L455.806,195 L463.864,195 Z M462.98,181.774 L460.464,181.774 L460.464,176.402 L463.014,176.402 C464.283333,176.402 465.229667,176.600333 465.853,176.997 C466.476333,177.393667 466.788,178.056667 466.788,178.986 C466.788,179.847333 466.482,180.527333 465.87,181.026 C465.258,181.524667 464.294667,181.774 462.98,181.774 L462.98,181.774 Z M463.456,191.396 L460.464,191.396 L460.464,185.242 L463.456,185.242 C464.929333,185.242 466.04,185.474333 466.788,185.939 C467.536,186.403667 467.91,187.146 467.91,188.166 C467.91,189.254 467.530333,190.064333 466.771,190.597 C466.011667,191.129667 464.906667,191.396 463.456,191.396 L463.456,191.396 Z M484.366,195 C485.975333,195 487.426,194.767667 488.718,194.303 C490.01,193.838333 491.041333,193.124333 491.812,192.161 C492.582667,191.197667 492.968,189.968 492.968,188.472 C492.968,186.976 492.577,185.797333 491.795,184.936 C491.013,184.074667 490.032667,183.508 488.854,183.236 L488.854,183.236 L488.854,183.1 C489.783333,182.76 490.514333,182.125333 491.047,181.196 C491.579667,180.266667 491.846,179.303333 491.846,178.306 C491.846,176.900667 491.489,175.801333 490.775,175.008 C490.061,174.214667 489.092,173.648 487.868,173.308 C486.644,172.968 485.272667,172.798 483.754,172.798 L483.754,172.798 L476.308,172.798 L476.308,195 L484.366,195 Z M483.482,181.774 L480.966,181.774 L480.966,176.402 L483.516,176.402 C484.785333,176.402 485.731667,176.600333 486.355,176.997 C486.978333,177.393667 487.29,178.056667 487.29,178.986 C487.29,179.847333 486.984,180.527333 486.372,181.026 C485.76,181.524667 484.796667,181.774 483.482,181.774 L483.482,181.774 Z M483.958,191.396 L480.966,191.396 L480.966,185.242 L483.958,185.242 C485.431333,185.242 486.542,185.474333 487.29,185.939 C488.038,186.403667 488.412,187.146 488.412,188.166 C488.412,189.254 488.032333,190.064333 487.273,190.597 C486.513667,191.129667 485.408667,191.396 483.958,191.396 L483.958,191.396 Z" transform="translate(-92 -172)"/>
</svg>
